<svg version="1.1" id="Layer_1" xmlns="http://www.w3.org/2000/svg" xmlns:xlink="http://www.w3.org/1999/xlink" viewBox="0 0 512.001 512.001" xml:space="preserve" width="256px" height="256px" fill="#000000"><g id="SVGRepo_bgCarrier" stroke-width="0"></g><g id="SVGRepo_tracerCarrier" stroke-linecap="round" stroke-linejoin="round"></g><g id="SVGRepo_iconCarrier"> <path d="M179.11,298.646v127.936c0,4.691-3.838,8.529-8.529,8.529s-8.529-3.838-8.529-8.529V298.646 c0-4.691,3.838-8.529,8.529-8.529S179.11,293.955,179.11,298.646z"></path> <path d="M511.744,144.781c0.341-15.011-2.559-29.511-8.785-43.072c-5.032-11.344-12.367-22.09-21.749-31.813 c-3.326-3.497-6.823-6.738-10.576-9.808c-25.587-21.323-60.13-33.946-95.355-34.372c-57.401,0-107.893,32.922-127.595,77.87 c-5.714,12.964-8.87,27.037-8.87,41.537v93.82H8.529c-4.691,0-8.529,3.838-8.529,8.529v230.285c0,4.691,3.838,8.529,8.529,8.529 h324.105c4.691,0,8.529-3.838,8.529-8.529V247.471c0-4.691-3.838-8.529-8.529-8.529h-17.058v-85.291 c0-26.781,28.487-51.174,59.618-51.174c20.47,0.256,41.707,7.676,52.539,21.579c4.265,5.459,6.823,11.941,7.164,19.276 c0.085,0.682,0.085,1.45,0.085,2.132c1.621,37.016,15.096,43.157,42.987,42.304c10.32-0.426,19.02-4.435,25.161-11.514 C509.953,168.407,512.938,157.49,511.744,144.781z M324.105,256.001v213.227H17.058V256.001H324.105z M490.251,165.081 c-2.985,3.497-7.506,5.373-12.879,5.629c-16.973,0.512-22.943,0.768-24.82-17.911c-0.256-2.218-0.426-4.776-0.512-7.591 c0.085-3.497-0.256-6.909-0.938-10.235c-1.194-6.226-3.668-12.026-7.164-17.399c-4.691-7.42-11.514-13.817-19.787-18.935 c-13.049-8.103-29.937-12.964-48.872-13.22c-28.828,0-55.183,15.864-68.233,38.04c-5.459,9.211-8.529,19.532-8.529,30.193v85.291 h-42.645v-93.82c0-55.439,54.671-102.349,119.322-102.349c35.737,0.426,70.791,15.011,93.734,38.893 c7.25,7.506,12.964,15.608,17.143,24.223c5.629,11.429,8.529,23.626,8.614,36.163v3.923 C495.539,154.163,494.004,160.731,490.251,165.081z"></path> <path style="fill:#7E939E;" d="M490.251,165.081c-2.985,3.497-7.506,5.373-12.879,5.629c-16.973,0.512-22.943,0.768-24.82-17.911 c4.862,0.853,10.491,1.023,16.888,0.853c10.32-0.426,19.02-4.435,25.161-11.514l0.085-0.085v3.923 C495.539,154.163,494.004,160.731,490.251,165.081z"></path> <path style="fill:#AFAFAF;" d="M494.686,142.052l-0.085,0.085c-6.141,7.079-14.841,11.088-25.161,11.514 c-6.397,0.171-12.026,0-16.888-0.853c-0.256-2.218-0.426-4.776-0.512-7.591c0.085-3.497-0.256-6.909-0.938-10.235 c-1.194-6.226-3.668-12.026-7.164-17.399c-4.691-7.42-11.514-13.817-19.787-18.935c-13.049-8.103-29.937-12.964-48.872-13.22 c-28.828,0-55.183,15.864-68.233,38.04c-5.459,9.211-8.529,19.532-8.529,30.193v68.233h-42.645v-76.762 c0-55.439,54.671-102.349,119.322-102.349c35.737,0.426,70.791,15.011,93.734,38.893c7.25,7.506,12.964,15.608,17.143,24.223 C491.701,117.318,494.601,129.514,494.686,142.052z"></path> <path style="fill:#FDB50D;" d="M17.058,256.001v213.227H272.93V256.001H17.058z M179.11,426.582c0,4.691-3.838,8.529-8.529,8.529 s-8.529-3.838-8.529-8.529V298.646c0-4.691,3.838-8.529,8.529-8.529s8.529,3.838,8.529,8.529V426.582z"></path> <rect x="272.93" y="256.001" style="fill:#F6981E;" width="51.174" height="213.227"></rect> <rect x="255.872" y="221.884" style="fill:#7E939E;" width="42.645" height="17.058"></rect> </g></svg>
